<svg xmlns="http://www.w3.org/2000/svg" width="172.001" height="44.002" viewBox="0 0 172.001 44.002"><defs><style>.a{fill:#004275;}.b{fill:#fff;}</style></defs><g transform="translate(0 0)"><g transform="translate(0 0)"><g transform="translate(41.135 6.28)"><path class="a" d="M1738.155,408.12c-2.235,0-3.022,1.149-3.022,4.521v21.588c0,3.372.787,4.518,3.022,4.518s3.022-1.146,3.022-4.518V412.641c0-3.372-.79-4.521-3.022-4.521" transform="translate(-1735.134 -408.12)"/></g><path class="a" d="M1768.6,426.984l1.6.25v-2.957l-1.6.25Z" transform="translate(-1693.999 -401.84)"/><path class="a" d="M1767.507,410.609h-1.226V407.6h1.226a1.086,1.086,0,1,0-.038-2.171,1.731,1.731,0,0,0-1.444.935l-1.464,2.122c-.967,1.37-1.846,1.928-3.107,1.928-2.156,0-3.3-1.366-3.3-3.953,0-2.554.983-3.794,3.05-3.794h.932v3.005h-.932c-.642,0-.951.279-.951.863a.825.825,0,0,0,.86.88c.585,0,.97-.282,1.571-1.181l1.349-1.934a3.415,3.415,0,0,1,3.145-1.876,3.1,3.1,0,0,1,3.022,1.581V401.84h-25.745a11.955,11.955,0,0,1,3.164,1.83c2.889,2.428,3.875,5.53,3.875,12.277v14.974c0,6.744-.986,9.85-3.875,12.281a13.1,13.1,0,0,1-5.506,2.544h16.221V443.79l4.548-1.123-4.548-1.11v-3.151l7.64,2.739h4.226v-3.619h-11.866V431.3h2.228v3.226h2.652v-3.057h2.232v3.057h2.845v-3.508h1.909v-.7l-11.866-2.411v-4.333l11.866-2.392V420.1h-11.866v-4.3c0-2.736.8-3.7,3.107-3.7,1.754,0,2.355.357,2.687,1.542.221-1.1.822-1.483,2.355-1.483h2.4a2.261,2.261,0,0,0,1.321-.289v-2.788a2.808,2.808,0,0,1-2.69,1.522" transform="translate(-1693.999 -401.84)"/><path class="a" d="M1767.083,415.11c-1.113,0-1.663.412-1.663,1.256v.733h4.776v-2.148a2.134,2.134,0,0,1-.86.159Z" transform="translate(-1693.999 -401.84)"/><path class="a" d="M1694,441.369v4.378h6.739c-3.249-.639-5.436-2.045-6.739-4.378" transform="translate(-1693.999 -401.84)"/><path class="a" d="M1761.8,415.052c-.948,0-1.407.4-1.407,1.2v.844h2.958v-.711c0-.863-.547-1.334-1.552-1.334" transform="translate(-1693.999 -401.84)"/><path class="a" d="M1765.969,444.145l-4.492,1.6h8.719v-1.6Z" transform="translate(-1693.999 -401.84)"/><path class="a" d="M1766.535,424.846l-6.212.956,6.212.9Z" transform="translate(-1693.999 -401.84)"/><path class="a" d="M1724.817,430.922V415.948c0-6.747.986-9.85,3.875-12.277a12.007,12.007,0,0,1,3.164-1.83H1717.79v7.429h-15.9v7.354a13.456,13.456,0,0,1,7.548-2.093c6.9,0,10.121,4.725,10.121,14.841,0,7.153-.857,10.392-3.287,13.089a11.317,11.317,0,0,1-6.265,3.288h24.183a13.129,13.129,0,0,1-5.5-2.544c-2.889-2.431-3.875-5.537-3.875-12.281" transform="translate(-1693.999 -401.84)"/><path class="a" d="M1702.353,433.96c0,3.44.983,4.787,3.477,4.787,2.763,0,3.42-1.48,3.42-8.091,0-6.815-.657-8.5-3.42-8.5-1.969,0-2.952.808-3.935,3.031H1694v5.063h8.354Z" transform="translate(-1693.999 -401.84)"/><path class="a" d="M1779.118,413.977l1.1-7.314,1.188,7.314h3.055l1.76-11.956h-2.687l-.82,8.371-1.131-8.371h-2.727l-1.1,8.371-.82-8.371h-2.741l1.779,11.956Z" transform="translate(-1693.999 -401.84)"/><path class="a" d="M1811.461,411.79h-3.089v-9.768h-2.792v11.956h5.881Z" transform="translate(-1693.999 -401.84)"/><g transform="translate(130.784)"><path class="a" d="M1831.453,402.668a4.3,4.3,0,0,0-2.88-.828,4.154,4.154,0,0,0-2.9.883c-.648.623-.891,1.4-.891,2.973V410.3c0,1.561.244,2.353.891,2.963a5.122,5.122,0,0,0,5.778,0c.645-.61.888-1.4.888-2.963v-1.146h-2.791v1.632c0,.912-.3,1.308-.977,1.308-.7,0-1-.4-1-1.308v-5.576c0-.912.3-1.308,1-1.308.68,0,.977.4.977,1.308v1.094h2.791v-.844c0-1.486-.243-2.22-.888-2.794" transform="translate(-1824.783 -401.84)"/></g><path class="a" d="M1839.708,411.79h-3.089v-9.768h-2.792v11.956h5.882Z" transform="translate(-1693.999 -401.84)"/><g transform="translate(155.73)"><path class="a" d="M1853.5,414.156c2.579,0,3.84-1.146,3.84-3.46a3.379,3.379,0,0,0-1.748-3.083l-1.8-1.324c-.838-.594-1.1-.967-1.1-1.545a.785.785,0,0,1,.819-.841c.544,0,.8.305.8.931v.915h2.8v-.915c0-2.025-1.154-3-3.531-3-2.412,0-3.686,1.133-3.686,3.245a3.568,3.568,0,0,0,1.8,3.047l1.972,1.434a1.726,1.726,0,0,1,.872,1.418,1.016,1.016,0,1,1-2.026.036v-1.2h-2.794v1.2c0,2.045,1.312,3.135,3.774,3.135" transform="translate(-1849.729 -401.84)"/><path class="a" d="M1862,414.156c2.589,0,3.844-1.146,3.844-3.46a3.373,3.373,0,0,0-1.742-3.083l-1.8-1.324c-.838-.594-1.1-.967-1.1-1.545a.79.79,0,0,1,.822-.841c.541,0,.8.305.8.931v.915h2.794v-.915c0-2.025-1.151-3-3.524-3-2.409,0-3.682,1.133-3.682,3.245a3.567,3.567,0,0,0,1.8,3.047l1.972,1.434a1.723,1.723,0,0,1,.875,1.418,1.016,1.016,0,1,1-2.026.036v-1.2h-2.794v1.2c0,2.045,1.309,3.135,3.768,3.135" transform="translate(-1849.729 -401.84)"/></g><path class="a" d="M1780.878,429.9H1777.4v-2.977h3.027V424.6H1777.4v-2.765h3.2V419.5h-6.167V432.23h6.444Z" transform="translate(-1693.999 -401.84)"/><path class="a" d="M1790.8,432.23V419.5h-2.549l.059,8.508-2.7-8.508h-3.29V432.23h2.546l-.057-8.223,2.767,8.223Z" transform="translate(-1693.999 -401.84)"/><g transform="translate(98.529 17.473)"><path class="a" d="M1800.458,423.626v-.594c0-1.545-.24-2.288-.926-2.862a4.672,4.672,0,0,0-3.034-.857,4.326,4.326,0,0,0-3.022.954c-.7.652-.948,1.47-.948,3.151V428.3c0,1.678.183,2.5.74,3.171a2.9,2.9,0,0,0,2.377.954,3.321,3.321,0,0,0,2.105-.649v.458h2.655V425h-4.16v2.33h1.315v1.506c0,.935-.335,1.392-1.037,1.392s-1.024-.441-1.024-1.392V422.9c0-.974.3-1.392,1-1.392s.986.419.986,1.392v.727Z" transform="translate(-1792.528 -419.313)"/></g><rect class="a" width="2.973" height="12.725" transform="translate(108.186 17.665)"/><path class="a" d="M1815.47,432.23V419.5h-2.546l.057,8.508-2.693-8.508H1807V432.23h2.543l-.057-8.223,2.77,8.223Z" transform="translate(-1693.999 -401.84)"/><path class="a" d="M1823.476,421.834V419.5h-6.167V432.23h6.447V429.9h-3.477v-2.977h3.033V424.6h-3.033v-2.765Z" transform="translate(-1693.999 -401.84)"/><path class="a" d="M1831.371,421.834V419.5H1825.2V432.23h6.447V429.9h-3.474v-2.977h3.027V424.6h-3.027v-2.765Z" transform="translate(-1693.999 -401.84)"/><rect class="a" width="2.973" height="12.725" transform="translate(148.965 17.665)"/><path class="a" d="M1856.246,432.23V419.5H1853.7l.057,8.508-2.693-8.508h-3.287V432.23h2.543l-.054-8.223,2.767,8.223Z" transform="translate(-1693.999 -401.84)"/><g transform="translate(163.973 17.473)"><path class="a" d="M1861.095,432.421a3.3,3.3,0,0,0,2.1-.649v.458h2.658V425h-4.163v2.33h1.318v1.506c0,.935-.335,1.392-1.04,1.392s-1.018-.435-1.018-1.392V422.9c0-.974.294-1.392,1-1.392s.986.419.986,1.392v.727h2.971v-.594c0-1.545-.24-2.288-.929-2.859a4.634,4.634,0,0,0-3.028-.86,4.335,4.335,0,0,0-3.025.954c-.708.649-.952,1.47-.952,3.151V428.3c0,1.681.187,2.5.746,3.171a2.894,2.894,0,0,0,2.377.954" transform="translate(-1857.972 -419.313)"/></g><path class="a" d="M1774.442,436.738V445.7h4.541v-1.638h-2.447v-2.1h2.133v-1.641h-2.133v-1.946h2.252v-1.644Z" transform="translate(-1693.999 -401.84)"/><g transform="translate(85.68 34.768)"><path class="a" d="M1784.076,440.931l-1.35-.993c-.626-.445-.825-.724-.825-1.155a.591.591,0,0,1,.616-.63c.408,0,.6.23.6.7v.685h2.1v-.685c0-1.519-.866-2.243-2.649-2.243-1.8,0-2.76.844-2.76,2.431a2.677,2.677,0,0,0,1.347,2.285l1.482,1.077a1.283,1.283,0,0,1,.654,1.058.763.763,0,1,1-1.52.029v-.9h-2.092v.9c0,1.532.98,2.353,2.829,2.353,1.934,0,2.88-.863,2.88-2.6a2.534,2.534,0,0,0-1.312-2.314" transform="translate(-1779.679 -436.608)"/></g><path class="a" d="M1786.091,436.738v1.644h1.8V445.7h2.094v-7.323h1.794v-1.644Z" transform="translate(-1693.999 -401.84)"/><path class="a" d="M1805.653,436.738V445.7h4.413v-1.638h-2.319v-7.329Z" transform="translate(-1693.999 -401.84)"/><rect class="a" width="2.094" height="8.967" transform="translate(116.865 34.898)"/><g transform="translate(119.93 34.768)"><path class="a" d="M1818.326,440.931l-1.35-.993c-.626-.445-.822-.724-.822-1.155a.591.591,0,0,1,.616-.63c.4,0,.6.23.6.7v.685h2.1v-.685c0-1.519-.869-2.243-2.649-2.243-1.8,0-2.759.844-2.759,2.431a2.67,2.67,0,0,0,1.346,2.285l1.482,1.077a1.282,1.282,0,0,1,.648,1.058.761.761,0,1,1-1.517.029v-.9h-2.092v.9c0,1.532.98,2.353,2.826,2.353,1.941,0,2.883-.863,2.883-2.6a2.54,2.54,0,0,0-1.312-2.314" transform="translate(-1813.929 -436.608)"/></g><path class="a" d="M1824,436.738v3.55h-1.27v-3.55h-2.094V445.7h2.094v-3.642H1824V445.7h2.1v-8.967Z" transform="translate(-1693.999 -401.84)"/><path class="a" d="M1827.38,436.738V445.7h4.538v-1.638h-2.447v-2.1h2.136v-1.641h-2.136v-1.946h2.252v-1.644Z" transform="translate(-1693.999 -401.84)"/><g transform="translate(93.307)"><path class="a" d="M1843.047,437.708v1.227h.929v6.77h2.058v-8.776H1844.2a1.377,1.377,0,0,1-1.154.779" transform="translate(-1787.306 -401.84)"/><path class="a" d="M1864.467,441.012c1.088-.253,1.388-.643,1.388-1.814,0-1.775-.7-2.418-2.563-2.418-1.77,0-2.7.834-2.7,2.418v.312h2.054V439.2c0-.643.212-.941.673-.941.417,0,.569.256.569.915,0,.915-.272,1.168-1.242,1.168h-.354v1.344h.525c.907,0,1.122.286,1.122,1.431,0,.938-.161,1.246-.664,1.246-.484,0-.664-.279-.664-1.035v-.7h-2.061v.7c0,1.72.853,2.515,2.687,2.515,1.966,0,2.763-.834,2.763-2.879,0-1.386-.338-1.814-1.533-1.95" transform="translate(-1787.306 -401.84)"/><path class="a" d="M1791.911,410.768c0,.841-.294,1.256-.907,1.256s-.91-.415-.91-1.256v-5.537c0-.844.3-1.256.91-1.256s.907.412.907,1.256Zm2.058-7.938a4.94,4.94,0,0,0-5.933,0,3.318,3.318,0,0,0-.73,2.525v5.287a3.327,3.327,0,0,0,.73,2.528,4.953,4.953,0,0,0,5.933,0,3.314,3.314,0,0,0,.733-2.528v-5.287a3.305,3.305,0,0,0-.733-2.525" transform="translate(-1787.306 -401.84)"/><path class="a" d="M1799.766,406.952h-.664v-2.9h.787c.752,0,1.119.448,1.119,1.379,0,.987-.439,1.525-1.242,1.525m3.929,5.413v-2.35c0-1.506-.344-2.1-1.378-2.311,1.1-.325,1.429-.912,1.429-2.635,0-2.259-.888-3.047-3.439-3.047h-4v11.956h2.794v-5h.683c.784,0,1.166.542,1.166,1.636v2.2a2.19,2.19,0,0,0,.3,1.165h2.952a2.051,2.051,0,0,1-.509-1.613" transform="translate(-1787.306 -401.84)"/><path class="a" d="M1817.223,410.375c0,1.237-.259,1.577-1.2,1.577h-.7v-7.906h.7c.945,0,1.2.341,1.2,1.577Zm-.749-8.354h-3.945v11.956h3.945c2.655,0,3.546-.967,3.546-3.8v-4.355c0-2.869-.876-3.8-3.546-3.8" transform="translate(-1787.306 -401.84)"/></g><path class="a" d="M1844.02,410.07l.838-6.095.895,6.095Zm2.914-8.049h-4.03l-2.3,11.956h2.88l.275-1.882h2.289l.281,1.882h2.9Z" transform="translate(-1693.999 -401.84)"/><g transform="translate(153.776 34.94)"><path class="a" d="M1851.151,440.516c0,.769-.155,1.022-.654,1.022s-.667-.253-.667-1.022v-1.181c0-.779.158-1.035.667-1.035s.654.256.654,1.035Zm1.492-2.992a2.661,2.661,0,0,0-2.121-.743c-1.909,0-2.747.876-2.747,2.892v.925a2.611,2.611,0,0,0,.458,1.882,1.723,1.723,0,0,0,1.309.539,2.132,2.132,0,0,0,1.609-.685v.789c0,.863-.2,1.185-.7,1.185-.446,0-.632-.214-.654-.792h-1.976c.063,1.642.838,2.327,2.63,2.327a2.837,2.837,0,0,0,2.133-.782c.481-.535.629-1.168.629-2.752v-2.22c0-1.451-.13-2.071-.566-2.564" transform="translate(-1847.775 -436.78)"/><path class="a" d="M1857.514,443.284c0,.782-.158,1.039-.654,1.039-.512,0-.67-.256-.67-1.039V442.1c0-.759.158-1.019.67-1.019.5,0,.654.26.654,1.019Zm1.6-3.142a1.726,1.726,0,0,0-1.315-.542,2.147,2.147,0,0,0-1.612.688v-.8c0-.886.2-1.194.736-1.194.417,0,.6.227.626.8h1.975c-.047-1.623-.809-2.324-2.538-2.324a2.933,2.933,0,0,0-2.2.8c-.5.552-.657,1.224-.657,2.914v2.045c0,1.49.149,2.139.616,2.632a2.732,2.732,0,0,0,2.045.675c1.95,0,2.775-.847,2.775-2.879v-.925a2.651,2.651,0,0,0-.455-1.9" transform="translate(-1847.775 -436.78)"/></g><path class="a" d="M1794.914,438.2l.67,4.57h-1.3Zm-1.464-1.467-1.726,8.967h2.159l.212-1.409h1.713l.209,1.409h2.175l-1.716-8.967Z" transform="translate(-1693.999 -401.84)"/><g transform="translate(104.897 17.665)"><path class="a" d="M1801.609,444.189h-.616v-2.275h.616c.654,0,.875.3.875,1.129s-.221,1.146-.875,1.146m-.616-5.933h.588c.616,0,.825.269.825,1.065s-.209,1.077-.825,1.077h-.588Zm2.184,2.755c.917-.188,1.195-.613,1.195-1.853,0-1.775-.641-2.421-2.453-2.421H1798.9V445.7h3.379c1.634,0,2.263-.685,2.263-2.483,0-1.684-.234-2.074-1.362-2.21" transform="translate(-1798.896 -419.505)"/><path class="a" d="M1836.46,443c0,.925-.2,1.185-.9,1.185h-.525V438.26h.525c.7,0,.9.253.9,1.181Zm-.559-6.267h-2.959V445.7h2.959c1.985,0,2.655-.727,2.655-2.849v-3.265c0-2.148-.654-2.853-2.655-2.853" transform="translate(-1798.896 -419.505)"/><path class="a" d="M1836.779,424.746h-.708V421.66h.837c.8,0,1.189.48,1.189,1.47,0,1.048-.465,1.616-1.318,1.616m4.178,5.767v-2.5c0-1.6-.37-2.23-1.47-2.46,1.173-.344,1.524-.974,1.524-2.8,0-2.4-.945-3.245-3.657-3.245H1833.1V432.23h2.971v-5.322h.724c.838,0,1.245.574,1.245,1.74v2.34a2.343,2.343,0,0,0,.316,1.243h3.139a2.209,2.209,0,0,1-.537-1.717" transform="translate(-1798.896 -419.505)"/></g></g><path class="b" d="M166.551,41.485v-.7h2.061v.7c0,.757.18,1.036.663,1.036.5,0,.664-.309.664-1.246,0-1.146-.215-1.431-1.122-1.431h-.525V38.5h.355c.97,0,1.242-.253,1.242-1.168,0-.66-.152-.915-.569-.915-.462,0-.673.3-.673.941v.311h-2.055v-.311c0-1.584.929-2.419,2.7-2.419,1.868,0,2.563.644,2.563,2.419,0,1.171-.3,1.561-1.388,1.813,1.2.137,1.534.565,1.534,1.951,0,2.044-.8,2.878-2.763,2.878C167.4,44,166.551,43.206,166.551,41.485Zm-5.8,1.84c-.468-.492-.616-1.142-.616-2.632V38.649c0-1.691.157-2.362.657-2.914a2.932,2.932,0,0,1,2.2-.8c1.729,0,2.491.7,2.538,2.325h-1.975c-.022-.578-.209-.8-.625-.8-.535,0-.736.308-.736,1.194v.795a2.145,2.145,0,0,1,1.612-.688,1.725,1.725,0,0,1,1.315.542,2.652,2.652,0,0,1,.454,1.895v.926c0,2.031-.824,2.878-2.775,2.878A2.727,2.727,0,0,1,160.751,43.324Zm1.438-3.066v1.185c0,.782.158,1.039.67,1.039.5,0,.654-.257.654-1.039V40.258c0-.759-.158-1.019-.654-1.019C162.347,39.239,162.189,39.5,162.189,40.258Zm-8.374,1.416h1.975c.022.577.209.791.654.791.509,0,.706-.321.706-1.185v-.788a2.134,2.134,0,0,1-1.609.685,1.72,1.72,0,0,1-1.309-.539,2.61,2.61,0,0,1-.458-1.883v-.924c0-2.015.837-2.893,2.746-2.893a2.662,2.662,0,0,1,2.121.744c.436.493.566,1.113.566,2.564v2.219c0,1.584-.148,2.217-.629,2.752a2.836,2.836,0,0,1-2.134.782C154.654,44,153.879,43.315,153.816,41.674Zm2.013-4.181v1.183c0,.769.158,1.021.667,1.021s.655-.253.655-1.021V37.492c0-.778-.156-1.034-.655-1.034S155.829,36.715,155.829,37.492Zm-35.9,4.155v-.9h2.092v.9a.761.761,0,1,0,1.517-.03,1.282,1.282,0,0,0-.648-1.058l-1.482-1.077a2.671,2.671,0,0,1-1.346-2.286c0-1.586.954-2.431,2.759-2.431,1.779,0,2.649.725,2.649,2.244v.685h-2.1V37.01c0-.467-.2-.7-.6-.7a.591.591,0,0,0-.616.629c0,.432.2.711.823,1.156l1.349.993a2.539,2.539,0,0,1,1.312,2.314c0,1.733-.942,2.6-2.883,2.6C120.909,44,119.929,43.179,119.929,41.647Zm-34.25,0v-.9h2.092v.9a.763.763,0,1,0,1.52-.03,1.282,1.282,0,0,0-.654-1.058l-1.482-1.077A2.677,2.677,0,0,1,85.809,37.2c0-1.586.954-2.431,2.759-2.431,1.783,0,2.649.725,2.649,2.244v.685h-2.1V37.01c0-.467-.2-.7-.6-.7a.591.591,0,0,0-.616.629c0,.432.2.711.825,1.156l1.349.993A2.534,2.534,0,0,1,91.388,41.4c0,1.733-.946,2.6-2.88,2.6C86.659,44,85.679,43.179,85.679,41.647Zm-18.2,2.26,4.493-1.6H76.2v1.6Zm-19.367,0a13.118,13.118,0,0,0,5.506-2.545c2.889-2.431,3.875-5.536,3.875-12.28V14.106c0-6.747-.986-9.848-3.875-12.276A11.944,11.944,0,0,0,50.453,0H76.2V2.168A3.1,3.1,0,0,0,73.176.588,3.414,3.414,0,0,0,70.03,2.463L68.68,4.4c-.6.9-.985,1.182-1.57,1.182a.825.825,0,0,1-.859-.88c0-.584.31-.864.951-.864h.932v-3H67.2c-2.067,0-3.05,1.24-3.05,3.793,0,2.586,1.147,3.954,3.3,3.954,1.261,0,2.139-.559,3.107-1.928l1.463-2.123a1.732,1.732,0,0,1,1.444-.934A1.024,1.024,0,0,1,74.6,4.66a1.022,1.022,0,0,1-1.093,1.1H72.281V8.769h1.226A2.808,2.808,0,0,0,76.2,7.247v2.787a2.256,2.256,0,0,1-1.321.29h-2.4c-1.533,0-2.134.379-2.355,1.483-.331-1.185-.932-1.542-2.686-1.542-2.3,0-3.107.96-3.107,3.7v4.3H76.2v1.077L64.331,21.728v4.331L76.2,28.47v.706H74.288v3.507H71.443V29.626H69.211v3.056H66.56V29.457H64.331v6.229H76.2V39.3H71.97l-7.639-2.739v3.151l4.549,1.11-4.549,1.123v1.958Zm-32.1,0a11.325,11.325,0,0,0,6.265-3.289c2.43-2.7,3.287-5.936,3.287-13.087,0-10.116-3.221-14.842-10.12-14.842A13.456,13.456,0,0,0,7.9,14.782V7.428h15.9V0H37.856a12,12,0,0,0-3.163,1.83C31.8,4.258,30.817,7.359,30.817,14.106V29.081c0,6.744.986,9.849,3.875,12.28a13.144,13.144,0,0,0,5.5,2.545ZM0,43.906V39.528c1.3,2.334,3.489,3.739,6.738,4.378Zm149.975-.043V37.094h-.929V35.867a1.374,1.374,0,0,0,1.153-.78h1.833v8.776Zm-11.034,0V34.9H141.9c2,0,2.655.7,2.655,2.853v3.264c0,2.123-.67,2.849-2.655,2.849Zm2.092-1.515h.525c.7,0,.9-.26.9-1.185V37.6c0-.929-.2-1.182-.9-1.182h-.525Zm-7.654,1.515V34.9h4.342v1.644H135.47v1.947h2.136v1.641H135.47v2.1h2.447v1.638Zm-3.384,0V40.221h-1.27v3.642h-2.093V34.9h2.093v3.549H130V34.9h2.1v8.967Zm-13.132,0V34.9h2.093v8.967Zm-5.211,0V34.9h2.094v7.329h2.319v1.638Zm-6.756,0V34.9h3.021c1.812,0,2.453.646,2.453,2.421,0,1.24-.278,1.665-1.2,1.853,1.129.137,1.363.526,1.363,2.21,0,1.8-.629,2.482-2.263,2.482Zm2.1-1.515h.617c.654,0,.876-.3.876-1.146s-.221-1.13-.876-1.13h-.617Zm0-3.791h.588c.617,0,.825-.269.825-1.077s-.209-1.065-.825-1.065h-.588Zm-4.974,5.305-.209-1.408H100.1l-.212,1.408H97.725L99.451,34.9h3.025l1.716,8.967Zm-1.729-2.93h1.3l-.67-4.569Zm-6.4,2.93V36.541h-1.8V34.9h5.683v1.644H95.981v7.322Zm-13.446,0V34.9h4.345v1.644H82.535v1.947h2.133v1.641H82.535v2.1h2.447v1.638ZM41.134,32.389V10.8c0-3.372.787-4.521,3.022-4.521s3.021,1.149,3.021,4.521V32.389c0,3.372-.79,4.517-3.021,4.517S41.134,35.761,41.134,32.389ZM8.354,32.12V28.41H0V23.347H7.9c.983-2.223,1.966-3.031,3.935-3.031,2.763,0,3.42,1.685,3.42,8.5,0,6.61-.657,8.09-3.42,8.09C9.337,36.906,8.354,35.558,8.354,32.12Zm156.364-2.493c-.559-.669-.746-1.49-.746-3.172V21.578c0-1.681.244-2.5.951-3.151a4.331,4.331,0,0,1,3.025-.955,4.637,4.637,0,0,1,3.028.861c.689.571.929,1.315.929,2.859v.594h-2.971v-.727c0-.975-.293-1.392-.986-1.392s-1,.417-1,1.392v5.932c0,.958.312,1.392,1.017,1.392s1.04-.457,1.04-1.392V25.486h-1.319V23.155h4.163V30.39h-2.659v-.459a3.29,3.29,0,0,1-2.1.65A2.894,2.894,0,0,1,164.717,29.626Zm-65.45,0c-.556-.669-.74-1.493-.74-3.172V21.578c0-1.681.244-2.5.949-3.151a4.321,4.321,0,0,1,3.021-.955,4.671,4.671,0,0,1,3.035.858c.686.574.926,1.317.926,2.862v.594h-2.974v-.727c0-.975-.294-1.392-.986-1.392s-1,.417-1,1.392v5.932c0,.95.316,1.392,1.023,1.392s1.037-.457,1.037-1.392V25.486h-1.315V23.155h4.16V30.39h-2.655v-.459a3.314,3.314,0,0,1-2.105.65A2.9,2.9,0,0,1,99.267,29.626Zm45.089.763a2.345,2.345,0,0,1-.316-1.244V26.807c0-1.166-.408-1.741-1.246-1.741h-.724V30.39H139.1V17.664h4.255c2.712,0,3.657.841,3.657,3.245,0,1.828-.351,2.457-1.524,2.8,1.1.23,1.47.857,1.47,2.46v2.5a2.212,2.212,0,0,0,.537,1.717Zm-2.285-7.484h.707c.854,0,1.319-.568,1.319-1.616,0-.99-.392-1.469-1.189-1.469h-.837Zm16.961,7.483-2.767-8.222.054,8.222h-2.543V17.664h3.287l2.694,8.507-.057-8.507h2.546V30.389Zm-10.068,0V17.664h2.974V30.389Zm-17.76,0V17.664h6.167v2.33h-3.194v2.765H137.2v2.326h-3.027v2.977h3.474v2.327Zm-7.9,0V17.664h6.167v2.33h-3.2v2.765h3.033v2.326h-3.033v2.977h3.477v2.327Zm-5.053,0-2.77-8.222.058,8.222H113V17.664h3.287l2.693,8.507-.056-8.507h2.546V30.389Zm-10.071,0V17.664h2.974V30.389Zm-14.6,0-2.767-8.222.057,8.222H88.326V17.664h3.29l2.7,8.507-.059-8.507H96.8V30.389Zm-13.149,0V17.661H86.6v2.333H83.4v2.765h3.027v2.326H83.4v2.977h3.474v2.327ZM74.6,25.144V22.686l1.6-.249v2.956Zm-8.277-1.183,6.212-.956v1.853Zm5.1-8.7v-.734c0-.844.55-1.255,1.663-1.255h2.254a2.122,2.122,0,0,0,.859-.159v2.148Zm-5.026,0v-.844c0-.8.458-1.2,1.407-1.2,1.005,0,1.552.47,1.552,1.334v.711ZM164.23,9.181v-1.2h2.794v1.2a1.016,1.016,0,1,0,2.026-.035,1.724,1.724,0,0,0-.876-1.419L166.2,6.292a3.566,3.566,0,0,1-1.8-3.046c0-2.113,1.273-3.245,3.682-3.245,2.374,0,3.524.97,3.524,2.994v.915H168.82V2.994c0-.625-.259-.93-.8-.93a.79.79,0,0,0-.822.841c0,.578.263.951,1.1,1.545l1.8,1.323a3.375,3.375,0,0,1,1.741,3.084c0,2.314-1.255,3.46-3.843,3.46C165.539,12.316,164.23,11.226,164.23,9.181Zm-8.5,0v-1.2h2.794v1.2a1.016,1.016,0,1,0,2.026-.035,1.727,1.727,0,0,0-.873-1.419L157.7,6.292a3.568,3.568,0,0,1-1.8-3.046C155.9,1.132,157.176,0,159.587,0c2.377,0,3.531.97,3.531,2.994v.915h-2.8V2.994c0-.625-.259-.93-.8-.93a.786.786,0,0,0-.819.841c0,.578.259.951,1.1,1.545l1.8,1.323a3.381,3.381,0,0,1,1.748,3.084c0,2.314-1.261,3.46-3.84,3.46C157.039,12.316,155.728,11.226,155.728,9.181Zm-24.053,2.243c-.648-.61-.892-1.4-.892-2.963V3.855c0-1.579.244-2.351.892-2.972a4.15,4.15,0,0,1,2.9-.883,4.294,4.294,0,0,1,2.88.827c.644.574.887,1.308.887,2.794v.844h-2.791V3.372c0-.913-.3-1.309-.976-1.309-.7,0-1,.4-1,1.309V8.948c0,.912.3,1.308,1,1.308.679,0,.976-.4.976-1.308V7.315h2.791V8.461c0,1.561-.243,2.353-.887,2.963a5.12,5.12,0,0,1-5.778,0Zm-37.639-.094A3.324,3.324,0,0,1,93.306,8.8V3.513A3.313,3.313,0,0,1,94.036.99a4.939,4.939,0,0,1,5.933,0,3.3,3.3,0,0,1,.733,2.523V8.8a3.312,3.312,0,0,1-.733,2.529,4.95,4.95,0,0,1-5.933,0Zm2.057-7.938V8.928c0,.841.3,1.255.911,1.255s.906-.415.906-1.255V3.391c0-.843-.293-1.256-.906-1.256S96.094,2.548,96.094,3.391Zm56.233,8.746-.281-1.882h-2.289l-.275,1.882H146.6L148.9.182h4.029l2.292,11.955ZM150.02,8.23h1.732l-.895-6.095Zm-31.491,3.907V.182h3.945c2.671,0,3.547.932,3.547,3.8V8.337c0,2.833-.892,3.8-3.547,3.8Zm2.794-2.025h.7c.944,0,1.2-.34,1.2-1.577V3.783c0-1.236-.26-1.577-1.2-1.577h-.7Zm-14.072,2.025a2.193,2.193,0,0,1-.3-1.165v-2.2c0-1.094-.382-1.635-1.166-1.635H105.1v5h-2.794V.182h4c2.551,0,3.439.789,3.439,3.047,0,1.723-.328,2.31-1.428,2.635,1.033.214,1.378.8,1.378,2.31v2.35a2.052,2.052,0,0,0,.508,1.613ZM105.1,5.111h.664c.8,0,1.242-.538,1.242-1.526,0-.931-.367-1.379-1.119-1.379H105.1Zm34.724,7.025V.182h2.793V9.949h3.089v2.187Zm-28.246,0V.182h2.792V9.949h3.09v2.187Zm-24.176,0L86.216,4.822l-1.1,7.314H81.972L80.193.182h2.741l.82,8.371,1.1-8.371h2.727l1.132,8.371.82-8.371h2.687L90.459,12.136Z" transform="translate(0.002 0.001)"/></g></svg>