<?xml version="1.0" encoding="UTF-8" standalone="no"?><!DOCTYPE svg PUBLIC "-//W3C//DTD SVG 1.1//EN" "http://www.w3.org/Graphics/SVG/1.1/DTD/svg11.dtd"><svg width="100%" height="100%" viewBox="0 0 40 58" version="1.1" xmlns="http://www.w3.org/2000/svg" xmlns:xlink="http://www.w3.org/1999/xlink" xml:space="preserve" xmlns:serif="http://www.serif.com/" style="fill-rule:evenodd;clip-rule:evenodd;stroke-miterlimit:2;"><g><rect x="0.731" y="0.754" width="38.501" height="40.361" style="fill:#fff;fill-rule:nonzero;"/><rect x="0.731" y="0.754" width="38.501" height="40.361" style="fill:none;stroke:#231f20;stroke-width:0.5px;"/><rect x="0.73" y="41.117" width="38.501" height="16.393" style="fill:#231f20;fill-rule:nonzero;"/><rect x="0.73" y="41.117" width="38.501" height="16.393" style="fill:none;stroke:#231f20;stroke-width:0.5px;"/><path d="M11.551,31.403l0.325,1.081l1.025,0l-1.313,-4.213l-1.243,-0l-1.288,4.213l0.988,0l0.293,-1.081l1.213,-0Zm-1.075,-0.713l0.256,-0.894c0.063,-0.243 0.131,-0.562 0.188,-0.812l0.018,0c0.063,0.244 0.138,0.562 0.207,0.812l0.262,0.894l-0.931,0Z" style="fill:#231f20;fill-rule:nonzero;"/><path d="M13.176,32.284c0.237,0.131 0.712,0.263 1.194,0.263c1.156,0 1.694,-0.6 1.694,-1.307c-0,-0.593 -0.344,-0.981 -1.088,-1.256c-0.55,-0.206 -0.781,-0.325 -0.781,-0.594c0,-0.212 0.2,-0.406 0.612,-0.406c0.407,0 0.713,0.119 0.875,0.2l0.213,-0.763c-0.25,-0.118 -0.594,-0.212 -1.075,-0.212c-0.988,-0 -1.594,0.544 -1.594,1.262c0,0.613 0.462,1 1.162,1.251c0.507,0.175 0.707,0.325 0.707,0.587c-0,0.275 -0.232,0.456 -0.669,0.456c-0.406,-0 -0.806,-0.131 -1.056,-0.262l-0.194,0.781Z" style="fill:#231f20;fill-rule:nonzero;"/><path d="M17.87,32.54c0.107,0.007 0.275,0.013 0.432,0c0.637,-0.025 1.175,-0.212 1.562,-0.568c0.438,-0.407 0.707,-1.019 0.707,-1.869c-0,-0.95 -0.494,-1.75 -1.538,-1.75c-0.894,0 -1.531,0.668 -1.531,1.462c-0,0.794 0.575,1.269 1.262,1.269c0.375,-0 0.638,-0.106 0.825,-0.294l0.013,0.007c-0.069,0.306 -0.244,0.575 -0.513,0.75c-0.219,0.15 -0.512,0.237 -0.806,0.25c-0.188,0.012 -0.288,0.018 -0.413,0l-0,0.743Zm1.138,-3.494c0.431,-0 0.6,0.425 0.594,0.857c-0,0.118 -0.013,0.181 -0.044,0.243c-0.094,0.144 -0.269,0.263 -0.538,0.263c-0.381,0 -0.575,-0.3 -0.575,-0.65c0,-0.425 0.238,-0.713 0.557,-0.713l0.006,-0Z" style="fill:#231f20;fill-rule:nonzero;"/><path d="M22.133,32.484l0.919,0l0,-4.063l-0.781,-0l-1.081,0.5l0.156,0.713l0.775,-0.369l0.012,-0l-0,3.219Z" style="fill:#231f20;fill-rule:nonzero;"/><path d="M25.733,32.553c1.026,-0 1.532,-0.869 1.532,-2.119c-0,-1.113 -0.431,-2.081 -1.513,-2.081c-1.05,0 -1.544,0.925 -1.544,2.106c0.006,1.15 0.469,2.094 1.519,2.094l0.006,-0Zm0.007,-0.719c-0.363,-0 -0.588,-0.45 -0.582,-1.388c-0,-0.918 0.225,-1.375 0.582,-1.375c0.381,0 0.575,0.475 0.575,1.375c-0,0.926 -0.2,1.388 -0.569,1.388l-0.006,-0Z" style="fill:#231f20;fill-rule:nonzero;"/><path d="M29.077,32.553c1.025,-0 1.532,-0.869 1.532,-2.119c-0,-1.113 -0.432,-2.081 -1.513,-2.081c-1.05,0 -1.544,0.925 -1.544,2.106c0.006,1.15 0.469,2.094 1.519,2.094l0.006,-0Zm0.006,-0.719c-0.362,-0 -0.587,-0.45 -0.581,-1.388c-0,-0.918 0.225,-1.375 0.581,-1.375c0.382,0 0.575,0.475 0.575,1.375c-0,0.926 -0.2,1.388 -0.568,1.388l-0.007,-0Z" style="fill:#231f20;fill-rule:nonzero;"/><path d="M9.941,39.018l0.583,-0l-0,-1.54l0.132,0c0.297,0 0.434,0.154 0.506,0.638c0.06,0.435 0.143,0.798 0.187,0.902l0.61,-0c-0.06,-0.126 -0.148,-0.522 -0.225,-0.973c-0.077,-0.44 -0.209,-0.688 -0.473,-0.781l0,-0.011c0.374,-0.171 0.583,-0.506 0.583,-0.935c0,-0.308 -0.072,-0.556 -0.281,-0.754c-0.214,-0.203 -0.533,-0.269 -0.918,-0.269c-0.242,-0 -0.501,0.022 -0.704,0.071l0,3.652Zm0.583,-3.239c0.049,-0.017 0.121,-0.022 0.198,-0.022c0.379,0.005 0.528,0.253 0.528,0.616c0,0.379 -0.22,0.654 -0.572,0.654l-0.154,0l-0,-1.248Z" style="fill:#231f20;fill-rule:nonzero;"/><path d="M14.159,37.836c0.011,-0.072 0.017,-0.16 0.017,-0.314c0,-0.715 -0.286,-1.226 -0.847,-1.226c-0.572,-0 -0.996,0.539 -0.996,1.424c-0,0.831 0.369,1.331 1.062,1.331c0.242,0 0.5,-0.049 0.671,-0.126l-0.088,-0.418c-0.116,0.049 -0.281,0.093 -0.479,0.093c-0.313,0 -0.588,-0.165 -0.594,-0.764l1.254,0Zm-1.254,-0.418c0.011,-0.314 0.127,-0.682 0.38,-0.682c0.209,-0 0.352,0.253 0.346,0.682l-0.726,0Z" style="fill:#231f20;fill-rule:nonzero;"/><path d="M16.514,37.181c0,-0.363 0.011,-0.621 0.027,-0.841l-0.517,-0l-0.033,0.286l-0.011,-0c-0.093,-0.182 -0.247,-0.33 -0.495,-0.33c-0.451,-0 -0.875,0.467 -0.875,1.402c0,0.704 0.27,1.309 0.815,1.309c0.214,-0 0.401,-0.104 0.495,-0.291l0.011,-0l0,0.209c0,0.5 -0.171,0.726 -0.523,0.726c-0.214,0 -0.385,-0.055 -0.506,-0.116l-0.121,0.457c0.171,0.077 0.396,0.127 0.638,0.127c0.347,-0 0.616,-0.105 0.798,-0.292c0.198,-0.204 0.297,-0.495 0.297,-1.128l0,-1.518Zm-0.583,0.853c0,0.077 -0.006,0.154 -0.033,0.225c-0.066,0.226 -0.193,0.281 -0.303,0.281c-0.225,0 -0.401,-0.281 -0.401,-0.864c-0,-0.506 0.132,-0.885 0.412,-0.885c0.176,0 0.259,0.159 0.297,0.302c0.017,0.055 0.028,0.127 0.028,0.198l0,0.743Z" style="fill:#231f20;fill-rule:nonzero;"/><path d="M17.746,39.018l0,-2.678l-0.589,-0l0,2.678l0.589,-0Zm-0.303,-3.036c0.187,0 0.319,-0.137 0.319,-0.341c-0,-0.209 -0.132,-0.341 -0.319,-0.341c-0.17,0 -0.313,0.132 -0.313,0.341c-0,0.204 0.137,0.341 0.308,0.341l0.005,0Z" style="fill:#231f20;fill-rule:nonzero;"/><path d="M18.235,38.897c0.116,0.094 0.363,0.154 0.572,0.154c0.506,0 0.886,-0.275 0.886,-0.819c-0,-0.336 -0.193,-0.6 -0.55,-0.814c-0.253,-0.165 -0.319,-0.248 -0.319,-0.391c-0,-0.148 0.099,-0.28 0.302,-0.28c0.143,-0 0.264,0.049 0.369,0.115l0.115,-0.434c-0.126,-0.072 -0.297,-0.132 -0.511,-0.132c-0.484,-0 -0.82,0.341 -0.82,0.803c-0,0.269 0.143,0.528 0.545,0.764c0.247,0.16 0.324,0.27 0.324,0.435c-0,0.198 -0.126,0.308 -0.335,0.308c-0.182,0 -0.363,-0.077 -0.462,-0.143l-0.116,0.434Z" style="fill:#231f20;fill-rule:nonzero;"/><path d="M20.315,35.878l-0,0.462l-0.319,-0l0,0.423l0.319,0l-0,1.397c-0,0.402 0.066,0.594 0.198,0.726c0.115,0.116 0.286,0.165 0.473,0.165c0.165,0 0.297,-0.016 0.385,-0.044l-0.011,-0.456c-0.061,0.011 -0.116,0.016 -0.182,0.016c-0.148,-0 -0.275,-0.082 -0.275,-0.412l0,-1.392l0.517,0l0,-0.423l-0.517,-0l0,-0.666l-0.588,0.204Z" style="fill:#231f20;fill-rule:nonzero;"/><path d="M23.571,37.836c0.011,-0.072 0.016,-0.16 0.016,-0.314c0,-0.715 -0.286,-1.226 -0.847,-1.226c-0.572,-0 -0.995,0.539 -0.995,1.424c-0,0.831 0.368,1.331 1.061,1.331c0.242,0 0.501,-0.049 0.671,-0.126l-0.088,-0.418c-0.115,0.049 -0.28,0.093 -0.478,0.093c-0.314,0 -0.589,-0.165 -0.594,-0.764l1.254,0Zm-1.254,-0.418c0.011,-0.314 0.126,-0.682 0.379,-0.682c0.209,-0 0.352,0.253 0.347,0.682l-0.726,0Z" style="fill:#231f20;fill-rule:nonzero;"/><path d="M24.121,39.018l0.589,-0l-0,-1.419c-0,-0.099 0.011,-0.192 0.022,-0.253c0.066,-0.291 0.269,-0.462 0.473,-0.462c0.049,0 0.088,0 0.126,0.006l-0,-0.583c-0.038,-0.006 -0.071,-0.011 -0.126,-0.011c-0.22,-0 -0.44,0.176 -0.545,0.445l-0.016,0l-0.033,-0.401l-0.512,-0c0.011,0.225 0.022,0.506 0.022,0.753l0,1.925Z" style="fill:#231f20;fill-rule:nonzero;"/><path d="M27.41,37.836c0.011,-0.072 0.016,-0.16 0.016,-0.314c-0,-0.715 -0.286,-1.226 -0.847,-1.226c-0.572,-0 -0.995,0.539 -0.995,1.424c0,0.831 0.368,1.331 1.061,1.331c0.242,0 0.501,-0.049 0.671,-0.126l-0.088,-0.418c-0.115,0.049 -0.28,0.093 -0.478,0.093c-0.314,0 -0.589,-0.165 -0.594,-0.764l1.254,0Zm-1.254,-0.418c0.011,-0.314 0.126,-0.682 0.379,-0.682c0.209,-0 0.352,0.253 0.347,0.682l-0.726,0Z" style="fill:#231f20;fill-rule:nonzero;"/><path d="M29.176,35.212l-0,1.375l-0.011,-0c-0.088,-0.187 -0.248,-0.291 -0.468,-0.291c-0.435,-0 -0.842,0.451 -0.842,1.391c-0,0.809 0.292,1.375 0.815,1.375c0.258,0 0.467,-0.17 0.555,-0.363l0.017,-0l0.038,0.319l0.501,-0c-0.011,-0.203 -0.022,-0.506 -0.022,-0.726l-0,-3.08l-0.583,-0Zm-0,2.86c-0,0.066 -0.006,0.127 -0.022,0.171c-0.072,0.28 -0.209,0.335 -0.319,0.335c-0.248,0 -0.391,-0.346 -0.391,-0.885c0,-0.479 0.105,-0.902 0.402,-0.902c0.176,0 0.297,0.192 0.319,0.407c0.011,0.055 0.011,0.115 0.011,0.165l-0,0.709Z" style="fill:#231f20;fill-rule:nonzero;"/><path d="M6.017,46.634l0.243,1.181l0.703,0l-0.939,-4.55l-0.844,0l-1.012,4.55l0.702,0l0.243,-1.181l0.904,-0Zm-0.823,-0.567l0.202,-1.04c0.054,-0.283 0.122,-0.722 0.169,-1.039l0.02,-0c0.048,0.317 0.108,0.735 0.169,1.032l0.189,1.047l-0.749,0Z" style="fill:#fff;fill-rule:nonzero;"/><path d="M6.956,44.528l0.884,3.287l0.655,0l0.871,-3.287l-0.716,-0l-0.317,1.64c-0.047,0.284 -0.095,0.56 -0.135,0.864l-0.014,0c-0.047,-0.31 -0.094,-0.607 -0.141,-0.864l-0.324,-1.64l-0.763,-0Z" style="fill:#fff;fill-rule:nonzero;"/><path d="M10.412,47.815l0,-3.287l-0.722,-0l0,3.287l0.722,0Zm-0.371,-3.726c0.229,0 0.391,-0.169 0.391,-0.419c-0,-0.256 -0.162,-0.418 -0.391,-0.418c-0.21,-0 -0.385,0.162 -0.385,0.418c-0,0.25 0.169,0.419 0.378,0.419l0.007,0Z" style="fill:#fff;fill-rule:nonzero;"/><path d="M13.011,45.756c0,-0.702 -0.216,-1.282 -1.067,-1.282c-0.398,-0 -0.742,0.135 -0.904,0.236l0.135,0.493c0.182,-0.115 0.378,-0.183 0.614,-0.183c0.358,0 0.493,0.237 0.493,0.581l0,0.088c-0.743,0.006 -1.458,0.364 -1.458,1.208c-0,0.581 0.358,0.972 0.83,0.972c0.284,0 0.527,-0.135 0.695,-0.385l0.014,-0l0.04,0.331l0.649,0c-0.034,-0.216 -0.041,-0.493 -0.041,-0.749l0,-1.31Zm-0.709,1.026c-0,0.061 -0.007,0.122 -0.02,0.169c-0.061,0.257 -0.23,0.378 -0.412,0.378c-0.162,0 -0.358,-0.135 -0.358,-0.506c-0,-0.574 0.507,-0.648 0.79,-0.655l-0,0.614Z" style="fill:#fff;fill-rule:nonzero;"/><path d="M13.686,43.961l0,0.567l-0.392,-0l0,0.519l0.392,-0l0,1.715c0,0.493 0.081,0.729 0.243,0.891c0.142,0.142 0.351,0.203 0.581,0.203c0.202,-0 0.364,-0.021 0.472,-0.054l-0.013,-0.561c-0.075,0.014 -0.142,0.021 -0.223,0.021c-0.182,-0 -0.338,-0.102 -0.338,-0.507l0,-1.708l0.635,-0l-0,-0.519l-0.635,-0l0,-0.817l-0.722,0.25Z" style="fill:#fff;fill-rule:nonzero;"/><path d="M16.13,47.815l-0,-3.287l-0.723,-0l0,3.287l0.723,0Zm-0.372,-3.726c0.23,0 0.392,-0.169 0.392,-0.419c0,-0.256 -0.162,-0.418 -0.392,-0.418c-0.209,-0 -0.384,0.162 -0.384,0.418c0,0.25 0.168,0.419 0.378,0.419l0.006,0Z" style="fill:#fff;fill-rule:nonzero;"/><path d="M17.777,47.869c0.493,0 1.181,-0.378 1.181,-1.708c0,-1.087 -0.472,-1.687 -1.161,-1.687c-0.614,-0 -1.201,0.513 -1.201,1.708c-0,1.107 0.479,1.687 1.174,1.687l0.007,0Zm0.013,-0.553c-0.378,-0 -0.472,-0.594 -0.472,-1.148c-0,-0.479 0.074,-1.141 0.466,-1.141c0.371,0 0.452,0.662 0.452,1.141c0,0.5 -0.081,1.148 -0.439,1.148l-0.007,-0Z" style="fill:#fff;fill-rule:nonzero;"/><path d="M19.424,47.815l0.722,0l0,-2.032c0,-0.121 0.014,-0.229 0.034,-0.297c0.068,-0.27 0.23,-0.405 0.405,-0.405c0.317,0 0.385,0.317 0.385,0.648l-0,2.086l0.722,0l-0,-2.153c-0,-0.763 -0.29,-1.188 -0.844,-1.188c-0.344,-0 -0.621,0.175 -0.776,0.438l-0.013,0l-0.034,-0.384l-0.628,-0c0.014,0.29 0.027,0.553 0.027,0.924l0,2.363Z" style="fill:#fff;fill-rule:nonzero;"/><path d="M23.13,47.667c0.141,0.094 0.486,0.189 0.823,0.189c0.817,-0 1.398,-0.52 1.398,-1.337c0,-0.486 -0.23,-0.925 -0.804,-1.303c-0.466,-0.297 -0.648,-0.459 -0.648,-0.81c0,-0.277 0.196,-0.553 0.608,-0.553c0.243,0 0.432,0.074 0.56,0.155l0.128,-0.621c-0.121,-0.075 -0.384,-0.162 -0.675,-0.162c-0.85,0 -1.33,0.56 -1.33,1.269c-0,0.493 0.351,0.945 0.858,1.269c0.371,0.257 0.594,0.466 0.594,0.83c0,0.378 -0.243,0.635 -0.689,0.635c-0.236,0 -0.533,-0.081 -0.702,-0.182l-0.121,0.621Z" style="fill:#fff;fill-rule:nonzero;"/><path d="M25.817,49.111l0.716,-0l-0,-1.586l0.013,0c0.095,0.169 0.27,0.344 0.561,0.344c0.533,0 1.046,-0.506 1.046,-1.708c0,-0.985 -0.338,-1.687 -0.992,-1.687c-0.284,-0 -0.534,0.141 -0.689,0.452l-0.014,0l-0.04,-0.398l-0.628,-0c0.014,0.276 0.027,0.587 0.027,1.032l-0,3.551Zm0.716,-3.362c-0,-0.087 0.006,-0.168 0.027,-0.243c0.04,-0.222 0.202,-0.425 0.385,-0.425c0.33,0 0.486,0.439 0.486,1.094c0,0.58 -0.122,1.1 -0.486,1.1c-0.122,0 -0.291,-0.067 -0.379,-0.385c-0.02,-0.074 -0.033,-0.175 -0.033,-0.276l-0,-0.865Z" style="fill:#fff;fill-rule:nonzero;"/><path d="M30.623,45.756c-0,-0.702 -0.216,-1.282 -1.067,-1.282c-0.398,-0 -0.742,0.135 -0.904,0.236l0.135,0.493c0.182,-0.115 0.378,-0.183 0.614,-0.183c0.358,0 0.493,0.237 0.493,0.581l-0,0.088c-0.743,0.006 -1.458,0.364 -1.458,1.208c-0,0.581 0.357,0.972 0.83,0.972c0.284,0 0.527,-0.135 0.695,-0.385l0.014,-0l0.04,0.331l0.648,0c-0.033,-0.216 -0.04,-0.493 -0.04,-0.749l-0,-1.31Zm-0.709,1.026c0,0.061 -0.007,0.122 -0.02,0.169c-0.061,0.257 -0.23,0.378 -0.412,0.378c-0.162,0 -0.358,-0.135 -0.358,-0.506c-0,-0.574 0.507,-0.648 0.79,-0.655l0,0.614Z" style="fill:#fff;fill-rule:nonzero;"/><path d="M32.877,47.187c-0.101,0.048 -0.216,0.075 -0.351,0.075c-0.439,-0 -0.709,-0.405 -0.709,-1.08c-0,-0.608 0.243,-1.108 0.709,-1.108c0.162,0 0.277,0.048 0.351,0.075l0.108,-0.574c-0.087,-0.047 -0.276,-0.095 -0.472,-0.095c-0.871,0 -1.418,0.729 -1.418,1.715c-0,1.08 0.52,1.661 1.303,1.661c0.243,-0 0.452,-0.054 0.554,-0.108l-0.075,-0.561Z" style="fill:#fff;fill-rule:nonzero;"/><path d="M35.362,46.364c0.013,-0.088 0.02,-0.196 0.02,-0.385c0,-0.878 -0.351,-1.505 -1.04,-1.505c-0.702,-0 -1.222,0.661 -1.222,1.748c-0,1.019 0.453,1.634 1.303,1.634c0.297,-0 0.615,-0.061 0.824,-0.156l-0.108,-0.513c-0.142,0.061 -0.344,0.115 -0.587,0.115c-0.385,-0 -0.723,-0.202 -0.729,-0.938l1.539,0Zm-1.539,-0.513c0.013,-0.385 0.155,-0.837 0.465,-0.837c0.257,-0 0.432,0.31 0.426,0.837l-0.891,-0Z" style="fill:#fff;fill-rule:nonzero;"/><path d="M8.768,52.257c0,-0.702 -0.216,-1.282 -1.066,-1.282c-0.399,0 -0.743,0.135 -0.905,0.236l0.135,0.493c0.182,-0.115 0.378,-0.183 0.614,-0.183c0.358,0 0.493,0.237 0.493,0.581l0,0.088c-0.742,0.006 -1.458,0.364 -1.458,1.208c-0,0.581 0.358,0.972 0.83,0.972c0.284,-0 0.527,-0.135 0.696,-0.385l0.013,-0l0.041,0.331l0.648,-0c-0.034,-0.216 -0.041,-0.493 -0.041,-0.749l0,-1.31Zm-0.708,1.026c-0,0.061 -0.007,0.122 -0.021,0.169c-0.06,0.257 -0.229,0.378 -0.411,0.378c-0.163,-0 -0.358,-0.135 -0.358,-0.506c-0,-0.574 0.506,-0.648 0.79,-0.655l-0,0.614Z" style="fill:#fff;fill-rule:nonzero;"/><path d="M9.369,54.316l0.723,-0l0,-2.032c0,-0.121 0.013,-0.229 0.033,-0.297c0.068,-0.27 0.23,-0.405 0.405,-0.405c0.318,0 0.385,0.317 0.385,0.648l0,2.086l0.723,-0l-0,-2.153c-0,-0.763 -0.291,-1.188 -0.844,-1.188c-0.345,0 -0.621,0.175 -0.777,0.438l-0.013,-0l-0.034,-0.384l-0.628,0c0.014,0.29 0.027,0.553 0.027,0.924l-0,2.363Z" style="fill:#fff;fill-rule:nonzero;"/><path d="M13.723,49.645l0,1.687l-0.013,0c-0.108,-0.229 -0.304,-0.357 -0.574,-0.357c-0.534,0 -1.033,0.553 -1.033,1.708c0,0.992 0.358,1.687 0.999,1.687c0.317,-0 0.574,-0.209 0.682,-0.445l0.02,-0l0.047,0.391l0.615,-0c-0.014,-0.25 -0.027,-0.621 -0.027,-0.891l-0,-3.78l-0.716,0Zm0,3.51c0,0.081 -0.007,0.155 -0.027,0.209c-0.088,0.345 -0.256,0.412 -0.391,0.412c-0.304,0 -0.48,-0.425 -0.48,-1.087c0,-0.587 0.129,-1.107 0.493,-1.107c0.216,0 0.365,0.236 0.392,0.5c0.013,0.067 0.013,0.141 0.013,0.202l0,0.871Z" style="fill:#fff;fill-rule:nonzero;"/><path d="M16.099,54.303c0.163,0.027 0.412,0.047 0.662,0.047c0.587,-0 1.033,-0.149 1.337,-0.459c0.344,-0.338 0.587,-0.952 0.587,-1.931c-0,-0.911 -0.23,-1.505 -0.601,-1.836c-0.27,-0.25 -0.648,-0.378 -1.174,-0.378c-0.311,0 -0.601,0.034 -0.811,0.088l0,4.469Zm0.716,-3.956c0.061,-0.014 0.135,-0.02 0.209,-0.02c0.628,-0 0.918,0.594 0.918,1.626c-0,1.384 -0.452,1.803 -0.951,1.803c-0.048,-0 -0.115,-0 -0.176,-0.014l-0,-3.395Z" style="fill:#fff;fill-rule:nonzero;"/><path d="M21.29,52.865c0.014,-0.088 0.021,-0.196 0.021,-0.385c-0,-0.878 -0.351,-1.505 -1.04,-1.505c-0.702,0 -1.222,0.661 -1.222,1.748c0,1.019 0.452,1.634 1.303,1.634c0.297,-0 0.614,-0.061 0.824,-0.156l-0.108,-0.513c-0.142,0.061 -0.345,0.115 -0.588,0.115c-0.385,-0 -0.722,-0.202 -0.729,-0.938l1.539,0Zm-1.539,-0.513c0.014,-0.385 0.155,-0.837 0.466,-0.837c0.257,0 0.432,0.31 0.425,0.837l-0.891,0Z" style="fill:#fff;fill-rule:nonzero;"/><path d="M22.621,54.316l0,-2.768l0.58,0l0,-0.519l-0.58,0l0,-0.176c0,-0.351 0.101,-0.668 0.432,-0.668c0.115,0 0.209,0.02 0.277,0.047l0.094,-0.567c-0.115,-0.041 -0.27,-0.074 -0.479,-0.074c-0.263,0 -0.534,0.087 -0.729,0.297c-0.25,0.263 -0.318,0.614 -0.318,0.979l-0,0.162l-0.432,0l0,0.519l0.432,0l-0,2.768l0.723,-0Z" style="fill:#fff;fill-rule:nonzero;"/><path d="M25.53,52.865c0.013,-0.088 0.02,-0.196 0.02,-0.385c-0,-0.878 -0.351,-1.505 -1.04,-1.505c-0.702,0 -1.222,0.661 -1.222,1.748c0,1.019 0.453,1.634 1.303,1.634c0.297,-0 0.615,-0.061 0.824,-0.156l-0.108,-0.513c-0.142,0.061 -0.344,0.115 -0.587,0.115c-0.385,-0 -0.723,-0.202 -0.73,-0.938l1.54,0Zm-1.54,-0.513c0.014,-0.385 0.156,-0.837 0.466,-0.837c0.257,0 0.432,0.31 0.426,0.837l-0.892,0Z" style="fill:#fff;fill-rule:nonzero;"/><path d="M26.003,54.316l0.722,-0l0,-2.032c0,-0.121 0.014,-0.229 0.034,-0.297c0.067,-0.27 0.229,-0.405 0.405,-0.405c0.317,0 0.385,0.317 0.385,0.648l0,2.086l0.722,-0l0,-2.153c0,-0.763 -0.29,-1.188 -0.844,-1.188c-0.344,0 -0.621,0.175 -0.776,0.438l-0.014,-0l-0.034,-0.384l-0.627,0c0.013,0.29 0.027,0.553 0.027,0.924l0,2.363Z" style="fill:#fff;fill-rule:nonzero;"/><path d="M30.519,53.688c-0.101,0.048 -0.216,0.075 -0.351,0.075c-0.439,0 -0.709,-0.405 -0.709,-1.08c0,-0.608 0.243,-1.108 0.709,-1.108c0.162,0 0.277,0.048 0.351,0.075l0.108,-0.574c-0.088,-0.047 -0.277,-0.095 -0.473,-0.095c-0.87,0 -1.417,0.729 -1.417,1.715c-0,1.08 0.52,1.661 1.303,1.661c0.243,-0 0.452,-0.054 0.553,-0.108l-0.074,-0.561Z" style="fill:#fff;fill-rule:nonzero;"/><path d="M33.002,52.865c0.014,-0.088 0.021,-0.196 0.021,-0.385c-0,-0.878 -0.352,-1.505 -1.04,-1.505c-0.702,0 -1.222,0.661 -1.222,1.748c0,1.019 0.452,1.634 1.303,1.634c0.297,-0 0.614,-0.061 0.824,-0.156l-0.108,-0.513c-0.142,0.061 -0.345,0.115 -0.588,0.115c-0.385,-0 -0.722,-0.202 -0.729,-0.938l1.539,0Zm-1.539,-0.513c0.014,-0.385 0.155,-0.837 0.466,-0.837c0.256,0 0.432,0.31 0.425,0.837l-0.891,0Z" style="fill:#fff;fill-rule:nonzero;"/><path d="M29.891,14.824c-0,6.127 -4.969,11.093 -11.094,11.093c-6.127,-0 -11.094,-4.966 -11.094,-11.093c0,-6.127 4.967,-11.094 11.094,-11.094c6.125,0 11.094,4.967 11.094,11.094Z" style="fill:#0075bf;fill-rule:nonzero;"/><path d="M32.206,19.105c-0,0.579 -0.473,1.05 -1.051,1.05c-0.581,0 -1.05,-0.471 -1.05,-1.05c-0,-0.58 0.469,-1.05 1.05,-1.05c0.578,-0 1.051,0.47 1.051,1.05Z" style="fill:#f79239;fill-rule:nonzero;"/><path d="M13.921,16.469c-0,-0.521 -0.008,-0.928 -0.04,-1.335l0.795,0l0.051,0.804l0.021,0c0.244,-0.458 0.815,-0.917 1.63,-0.917c0.683,0 1.743,0.408 1.743,2.1l0,2.946l-0.895,-0l0,-2.845c0,-0.794 -0.297,-1.467 -1.143,-1.467c-0.582,-0 -1.04,0.418 -1.204,0.918c-0.039,0.111 -0.06,0.275 -0.06,0.417l-0,2.977l-0.898,-0l-0,-3.598Z" style="fill:#fff;fill-rule:nonzero;"/><path d="M22.739,17.131c0,-0.133 -0.009,-0.265 -0.041,-0.376c-0.142,-0.551 -0.612,-1.021 -1.284,-1.021c-0.928,-0 -1.489,0.785 -1.489,1.896c-0,0.99 0.47,1.836 1.458,1.836c0.583,0 1.082,-0.357 1.284,-0.978c0.041,-0.123 0.072,-0.297 0.072,-0.429l0,-0.928Zm0,2.181l-0.021,-0c-0.265,0.48 -0.816,0.867 -1.611,0.867c-1.15,-0 -2.088,-0.988 -2.088,-2.496c-0,-1.847 1.192,-2.662 2.231,-2.662c0.765,0 1.274,0.378 1.521,0.857l0.019,0l0.031,-0.744l0.856,0c-0.031,0.407 -0.041,0.836 -0.041,1.355l0,5.597l-0.897,0l0,-2.774Z" style="fill:#fff;fill-rule:nonzero;"/><path d="M27.51,17.549c-0.98,-0.02 -2.091,0.153 -2.091,1.112c-0,0.591 0.389,0.855 0.836,0.855c0.653,0 1.07,-0.407 1.215,-0.826c0.028,-0.092 0.04,-0.194 0.04,-0.284l0,-0.857Zm0.876,1.336c0,0.427 0.021,0.846 0.072,1.182l-0.807,-0l-0.081,-0.622l-0.031,0c-0.264,0.387 -0.805,0.734 -1.509,0.734c-0.997,-0 -1.507,-0.703 -1.507,-1.417c-0,-1.192 1.06,-1.845 2.966,-1.835l0,-0.102c0,-0.407 -0.113,-1.151 -1.123,-1.141c-0.468,-0 -0.947,0.132 -1.294,0.367l-0.203,-0.602c0.407,-0.254 1.01,-0.428 1.63,-0.428c1.521,0 1.887,1.03 1.887,2.018l0,1.846Z" style="fill:#fff;fill-rule:nonzero;"/></g></svg>