<svg xmlns="http://www.w3.org/2000/svg" width="371.998" height="52" viewBox="0 0 371.998 52"><defs><style>.a{fill:#0A1B42;}</style></defs><path class="a" d="M597.365,311.447H241.625A8,8,0,0,0,233.5,319.3v36.3a8,8,0,0,0,8.127,7.844h355.74A8,8,0,0,0,605.5,355.6V319.3A8,8,0,0,0,597.365,311.447Zm0,50.465H241.625a6.43,6.43,0,0,1-6.535-6.31V319.3a6.433,6.433,0,0,1,6.535-6.313h355.74a6.437,6.437,0,0,1,6.541,6.313v36.3A6.434,6.434,0,0,1,597.365,361.912Z" transform="translate(-233.497 -311.447)"/><g transform="translate(13.819 13.466)"><path class="a" d="M275.893,349.984H255.805a8.576,8.576,0,0,1-6.009-2.262,7.382,7.382,0,0,1-2.479-5.671v-9.2a7.358,7.358,0,0,1,2.479-5.671,8.552,8.552,0,0,1,6.009-2.269h20.088v5.832h-20.1c-1.606,0-2.421.7-2.421,2.1v9.211c0,1.39.815,2.088,2.421,2.088h20.1Z" transform="translate(-247.317 -324.913)"/></g><path class="a" d="M312.953,349.984h-6.159v-9.618H286.98v9.618h-6.042v-25.07h6.042v9.615h19.813v-9.615h6.159Z" transform="translate(-233.497 -311.447)"/><g transform="translate(84.499 13.466)"><path class="a" d="M349.833,349.984h-6.047v-7.933H328.436v-5.839h15.351v-3.547c0-1.278-.43-1.92-1.3-1.92H325.3c-.849,0-1.265.629-1.265,1.9v17.339H318V332.652a7.911,7.911,0,0,1,2.043-5.454,6.726,6.726,0,0,1,5.262-2.285h17.162a6.8,6.8,0,0,1,5.327,2.285,7.911,7.911,0,0,1,2.043,5.454Z" transform="translate(-317.996 -324.913)"/><path class="a" d="M385.865,342.258a7.9,7.9,0,0,1-1.968,5.388,6.917,6.917,0,0,1-5.351,2.338h-22.4v-5.836h22.41c.846,0,1.265-.629,1.265-1.89s-.419-1.894-1.265-1.894h-16.3a6.921,6.921,0,0,1-5.351-2.338,7.625,7.625,0,0,1-2.016-5.361,7.874,7.874,0,0,1,2.067-5.46,6.8,6.8,0,0,1,5.3-2.292h22.41v5.829H362.247c-.839,0-1.269.642-1.269,1.923,0,1.242.43,1.867,1.269,1.867h16.3a6.944,6.944,0,0,1,5.351,2.332,7.932,7.932,0,0,1,1.968,5.394" transform="translate(-317.996 -324.913)"/></g><path class="a" d="M418.636,330.744h-21.66v3.789H417.23v5.833H396.976v3.782h21.61v5.836H390.927v-25.07h27.709Z" transform="translate(-233.497 -311.447)"/><g transform="translate(190.198 13.466)"><path class="a" d="M454.655,342.258a7.843,7.843,0,0,1-1.961,5.388,6.894,6.894,0,0,1-5.348,2.338H424.953v-5.836H447.36c.846,0,1.262-.629,1.262-1.89s-.416-1.894-1.262-1.894H431.055a6.887,6.887,0,0,1-5.344-2.338,7.61,7.61,0,0,1-2.016-5.361,7.865,7.865,0,0,1,2.057-5.46,6.83,6.83,0,0,1,5.3-2.292h22.417v5.829H431.048c-.839,0-1.262.642-1.262,1.923,0,1.242.423,1.867,1.262,1.867h16.3a6.942,6.942,0,0,1,5.348,2.332,7.877,7.877,0,0,1,1.961,5.394" transform="translate(-423.695 -324.913)"/></g><path class="a" d="M488.5,330.744H476.768v19.24h-6.043v-19.24H459.016v-5.829H488.5Z" transform="translate(-233.497 -311.447)"/><path class="a" d="M521.263,330.744H499.582v3.789h20.259v5.833H499.582v3.782H521.2v5.836H493.54v-25.07h27.723Z" transform="translate(-233.497 -311.447)"/><path class="a" d="M558.154,349.984H552.1v-7.933H536.746v-5.839H552.1v-3.547c0-1.278-.437-1.92-1.313-1.92H533.605c-.832,0-1.255.629-1.255,1.9v17.339h-6.043V332.652a7.9,7.9,0,0,1,2.043-5.454,6.75,6.75,0,0,1,5.276-2.285h17.151a6.79,6.79,0,0,1,5.331,2.285,7.93,7.93,0,0,1,2.046,5.454Z" transform="translate(-233.497 -311.447)"/><path class="a" d="M591.676,342.054a7.44,7.44,0,0,1-2.442,5.668,8.5,8.5,0,0,1-5.992,2.262H563.208V334.776h6.043v9.372h14c1.542,0,2.323-.7,2.323-2.091v-9.211c0-1.4-.781-2.1-2.312-2.1H563.208v-5.832h20.033a8.478,8.478,0,0,1,5.992,2.272,7.4,7.4,0,0,1,2.442,5.668Z" transform="translate(-233.497 -311.447)"/></svg>