<svg height="15.069" viewBox="0 0 18.612 15.069" width="18.612" xmlns="http://www.w3.org/2000/svg"><path d="m690.894 2636.5 2.563-7.26h-3.967l-3.844 7.382a15.759 15.759 0 0 0 -.824 1.769 4.664 4.664 0 0 0 -.275 1.647 4.144 4.144 0 0 0 1.19 3.112 4 4 0 0 0 2.9 1.159 3.919 3.919 0 0 0 2.929-1.189 4.231 4.231 0 0 0 1.159-3.081 3.9 3.9 0 0 0 -1.831-3.539zm9.7 0 2.563-7.26h-3.966l-3.845 7.382a15.747 15.747 0 0 0 -.824 1.769 4.663 4.663 0 0 0 -.275 1.647 4.144 4.144 0 0 0 1.19 3.112 4 4 0 0 0 2.9 1.159 3.919 3.919 0 0 0 2.929-1.189 4.231 4.231 0 0 0 1.159-3.081 3.9 3.9 0 0 0 -1.831-3.539z" fill="#0e275e" transform="translate(-684.548 -2629.238)"/></svg>